<svg id="Layer_1" data-name="Layer 1" xmlns="http://www.w3.org/2000/svg" xmlns:xlink="http://www.w3.org/1999/xlink" viewBox="0 0 370.38 256"><defs><linearGradient id="linear-gradient" x1="194.22" y1="38.8" x2="199.91" y2="338.33" gradientUnits="userSpaceOnUse"><stop offset="0" stop-color="#fff"/><stop offset="1" stop-color="#262262"/></linearGradient></defs><path d="M368.54,301.36a50,50,0,0,0,0-70.75l-99.79-99.79.06-.06L198.06,60l-.06.06-.06-.06-70.75,70.74.06.06L27.46,230.61a50,50,0,0,0,0,70.75h0a50,50,0,0,0,70.75,0L162.63,237a50,50,0,0,1,70.74,0l64.42,64.41a50,50,0,0,0,70.75,0Z" transform="translate(-12.81 -60.02)" style="fill:#391f59"/><path d="M362,292.09a48.12,48.12,0,0,0,0-68l-96-96,.06,0-68-68-.06,0-.06,0-68,68,.06,0-96,96a48.12,48.12,0,0,0,0,68h0a48.12,48.12,0,0,0,68,0l62-61.94a48.09,48.09,0,0,1,68,0L294,292.09a48.12,48.12,0,0,0,68,0Z" transform="translate(-12.81 -60.02)" style="fill:#6652a2"/><path d="M366.17,297.34a49.2,49.2,0,0,0,0-69.57L268,129.64l.06,0L198.53,60l-.06,0-.06,0-69.57,69.57.06,0L30.77,227.77a49.2,49.2,0,0,0,0,69.57h0a49.2,49.2,0,0,0,69.57,0L163.68,234a49.2,49.2,0,0,1,69.57,0l63.35,63.34a49.2,49.2,0,0,0,69.57,0Z" transform="translate(-12.81 -60.02)" style="opacity:0.32;fill:url(#linear-gradient)"/></svg>